# xmcd
#
# Track frame offsets:
#	150
#	24703
#	47872
#	69136
#	89975
#	112269
#	137977
#	156939
#	177477
#	198137
#
# Disc length: 2872 seconds
#
# Revision: 4
# Processed by: cddbd v1.5.2PL0 Copyright (c) Steve Scherf et al.
# Submitted via: EZCDAudioConverter 8.0.2.1
#
DISCID=950b360a
DTITLE=Phi Nhung - Vườn Tao Ngộ
DYEAR=1997
DGENRE=country
TTITLE0=Vườn Tao Ngộ
TTITLE1=Hai mùa mưa
TTITLE2=Cánh buồm chuyển bến
TTITLE3=Khuya nay anh đi rồi
TTITLE4=Anh đi chẳng trỏ về
TTITLE5=Mưa trên phố Huế
TTITLE6=Ngày đá đơm bông
TTITLE7=Nhớ nhau hoài
TTITLE8=Cơn mê tình ái
TTITLE9=Nó và tôi
EXTD=
EXTT0=
EXTT1=
EXTT2=
EXTT3=
EXTT4=
EXTT5=
EXTT6=
EXTT7=
EXTT8=
EXTT9=
PLAYORDER=
